<?xml version="1.0" standalone="no"?>
<!DOCTYPE svg PUBLIC "-//W3C//DTD SVG 20010904//EN"
 "http://www.w3.org/TR/2001/REC-SVG-20010904/DTD/svg10.dtd">
<svg version="1.0" xmlns="http://www.w3.org/2000/svg"
 width="1446.000000pt" height="769.000000pt" viewBox="0 0 1446.000000 769.000000"
 preserveAspectRatio="xMidYMid meet">
<metadata>
Created by potrace 1.16, written by Peter Selinger 2001-2019
</metadata>
<g transform="translate(0.000000,769.000000) scale(0.100000,-0.100000)"
fill="#000000" stroke="none">
<path d="M4080 7264 c-96 -7 -213 -18 -260 -24 -119 -17 -317 -49 -365 -60
-22 -5 -74 -16 -115 -25 -41 -9 -95 -23 -120 -30 -25 -7 -72 -20 -105 -30 -83
-23 -292 -93 -329 -109 -17 -8 -71 -31 -121 -51 -618 -257 -1163 -705 -1488
-1222 -38 -59 -93 -139 -123 -178 -142 -181 -300 -477 -380 -710 -34 -100 -70
-246 -84 -345 -6 -47 -14 -96 -16 -109 -2 -13 -31 -51 -66 -85 -141 -137 -178
-202 -178 -311 0 -247 87 -402 318 -568 44 -32 96 -62 114 -68 18 -5 215 -9
446 -9 405 0 414 0 419 20 3 11 11 20 18 20 9 0 14 32 19 108 35 545 283 891
722 1008 134 35 406 45 535 20 253 -51 429 -163 555 -358 121 -185 192 -444
194 -706 0 -54 3 -65 19 -69 11 -3 21 -13 24 -24 5 -19 35 -19 1337 -19 1302
0 1332 0 1337 19 3 11 13 21 22 24 15 4 19 22 24 123 13 244 76 451 186 619
112 171 222 262 401 334 140 56 205 66 420 66 214 0 274 -9 422 -66 196 -76
374 -249 473 -462 64 -137 109 -305 121 -449 6 -74 9 -88 24 -88 10 0 20 -9
23 -20 5 -20 14 -20 615 -20 407 0 613 3 617 10 4 6 12 9 20 8 21 -5 159 126
203 192 88 131 95 271 23 464 -10 28 -21 94 -25 146 -42 593 -382 1018 -1001
1252 -44 17 -101 37 -127 44 -133 39 -158 46 -223 60 -95 21 -285 51 -370 59
-38 4 -86 8 -105 11 -19 2 -93 7 -165 10 -118 6 -131 8 -145 28 -257 367 -632
711 -1061 973 -278 170 -653 337 -949 421 -19 6 -66 19 -105 30 -151 43 -360
84 -615 121 -263 38 -688 49 -1010 25z m690 -84 c842 -51 1593 -313 2220 -773
282 -207 546 -469 715 -707 37 -52 73 -95 81 -95 8 0 18 -6 22 -12 5 -8 44
-13 115 -14 284 -4 634 -62 902 -147 437 -140 759 -390 915 -711 75 -153 118
-320 127 -481 4 -83 11 -124 36 -195 28 -78 32 -103 32 -190 0 -92 -2 -104
-29 -152 -16 -29 -66 -88 -111 -133 l-83 -80 -575 0 c-659 0 -590 -12 -600
104 -22 240 -135 510 -289 689 -98 113 -289 234 -433 275 -148 42 -187 47
-375 46 -153 0 -202 -4 -284 -23 -214 -48 -382 -142 -512 -285 -173 -191 -278
-464 -300 -777 l-7 -99 -1288 0 -1289 0 0 43 c0 61 -26 260 -44 337 -102 433
-349 693 -746 787 -103 24 -430 24 -540 -1 -181 -41 -314 -99 -436 -190 -237
-179 -393 -506 -411 -863 l-6 -113 -399 0 -399 0 -88 65 c-202 148 -271 265
-271 463 0 113 10 133 147 274 80 83 93 101 94 132 1 20 2 39 3 44 1 4 6 32
10 62 47 327 218 712 460 1033 38 51 94 133 124 182 57 91 156 226 220 300
126 145 369 372 512 476 161 119 397 261 548 330 46 21 98 45 115 54 220 102
598 218 882 270 50 9 110 21 135 26 241 47 753 70 1100 49z"/>
<path d="M4352 6894 l-23 -19 0 -634 c0 -348 2 -635 3 -636 2 -2 381 -6 843
-9 462 -3 1108 -9 1436 -12 577 -6 596 -6 602 12 4 11 12 27 19 36 15 21 -14
65 -133 197 -333 371 -870 712 -1399 887 -357 119 -697 176 -1125 190 -187 6
-202 5 -223 -12z m398 -84 c777 -53 1454 -317 2020 -788 130 -108 367 -351
343 -352 -79 -4 -1282 3 -1813 10 -388 5 -744 10 -792 10 l-88 0 0 558 c0 307
3 562 7 565 9 10 155 8 323 -3z"/>
<path d="M3910 6864 c-342 -54 -522 -95 -745 -169 -222 -74 -302 -106 -515
-212 -386 -191 -732 -461 -948 -739 -36 -47 -38 -56 -17 -74 8 -7 15 -20 15
-30 0 -16 69 -17 1098 -24 603 -3 1125 -9 1159 -13 l62 -6 15 38 c14 33 16
113 16 616 0 374 -4 580 -10 584 -5 3 -10 15 -10 26 0 22 -3 22 -120 3z m58
-625 l-3 -541 -420 1 c-862 2 -1746 14 -1742 24 6 19 181 201 252 263 167 145
390 294 605 406 155 80 399 181 540 223 30 9 66 21 80 26 77 27 337 86 495
113 124 21 136 23 168 25 l27 1 -2 -541z"/>
<path d="M4497 5203 c-4 -3 -7 -24 -7 -45 l0 -38 279 0 279 0 4 35 c2 19 -1
40 -6 45 -11 11 -538 14 -549 3z"/>
<path d="M8713 5201 c-100 -16 -100 -15 -40 -156 81 -189 182 -307 321 -375
134 -66 266 -90 494 -90 98 0 124 3 128 14 7 19 -40 154 -79 226 -105 194
-264 313 -487 366 -77 18 -264 26 -337 15z m289 -96 c191 -40 320 -122 420
-268 41 -60 77 -132 78 -154 0 -28 -278 -8 -387 28 -82 27 -166 83 -228 150
-51 57 -150 233 -140 250 10 14 176 11 257 -6z"/>
<path d="M2565 4424 c-200 -30 -375 -115 -518 -253 -82 -79 -136 -155 -187
-265 -62 -132 -75 -198 -75 -376 0 -147 2 -160 32 -255 88 -275 298 -491 563
-578 122 -40 164 -47 285 -47 258 0 470 92 652 283 174 184 263 450 233 700
-47 387 -309 680 -690 773 -58 14 -244 26 -295 18z m257 -536 c267 -123 308
-484 75 -657 -79 -58 -128 -74 -232 -74 -82 -1 -96 2 -156 32 -122 60 -199
160 -219 285 -30 187 72 360 252 427 77 28 202 22 280 -13z"/>
<path d="M7345 4424 c-301 -46 -540 -208 -683 -464 -114 -205 -135 -502 -52
-724 172 -463 666 -698 1130 -538 287 99 494 332 574 648 21 81 21 295 1 384
-39 166 -121 314 -241 434 -125 124 -259 199 -433 242 -58 15 -244 26 -296 18z
m267 -543 c112 -56 183 -146 208 -265 36 -176 -54 -353 -218 -428 -59 -27 -78
-31 -157 -31 -81 -1 -97 3 -157 31 -85 41 -153 109 -192 192 -27 58 -30 75
-30 160 0 85 3 101 28 153 78 155 202 230 366 224 72 -3 95 -8 152 -36z"/>
</g>
</svg>
